<svg id="visual" viewBox="0 0 900 600" width="900" height="600" xmlns="http://www.w3.org/2000/svg" xmlns:xlink="http://www.w3.org/1999/xlink" version="1.1"><rect x="0" y="0" width="900" height="600" fill="#001220"></rect><path d="M0 362L21.5 360.2C43 358.3 86 354.7 128.8 354C171.7 353.3 214.3 355.7 257.2 371.5C300 387.3 343 416.7 385.8 427.8C428.7 439 471.3 432 514.2 422.8C557 413.7 600 402.3 642.8 399.8C685.7 397.3 728.3 403.7 771.2 397.2C814 390.7 857 371.3 878.5 361.7L900 352L900 601L878.5 601C857 601 814 601 771.2 601C728.3 601 685.7 601 642.8 601C600 601 557 601 514.2 601C471.3 601 428.7 601 385.8 601C343 601 300 601 257.2 601C214.3 601 171.7 601 128.8 601C86 601 43 601 21.5 601L0 601Z" fill="#fa7268"></path><path d="M0 421L21.5 418C43 415 86 409 128.8 409.8C171.7 410.7 214.3 418.3 257.2 423.2C300 428 343 430 385.8 433.7C428.7 437.3 471.3 442.7 514.2 445.2C557 447.7 600 447.3 642.8 450.7C685.7 454 728.3 461 771.2 466.5C814 472 857 476 878.5 478L900 480L900 601L878.5 601C857 601 814 601 771.2 601C728.3 601 685.7 601 642.8 601C600 601 557 601 514.2 601C471.3 601 428.7 601 385.8 601C343 601 300 601 257.2 601C214.3 601 171.7 601 128.8 601C86 601 43 601 21.5 601L0 601Z" fill="#ef5f67"></path><path d="M0 451L21.5 453C43 455 86 459 128.8 465.5C171.7 472 214.3 481 257.2 485.7C300 490.3 343 490.7 385.8 487.5C428.7 484.3 471.3 477.7 514.2 480C557 482.3 600 493.7 642.8 498.7C685.7 503.7 728.3 502.3 771.2 493.5C814 484.7 857 468.3 878.5 460.2L900 452L900 601L878.5 601C857 601 814 601 771.2 601C728.3 601 685.7 601 642.8 601C600 601 557 601 514.2 601C471.3 601 428.7 601 385.8 601C343 601 300 601 257.2 601C214.3 601 171.7 601 128.8 601C86 601 43 601 21.5 601L0 601Z" fill="#e34c67"></path><path d="M0 521L21.5 522.7C43 524.3 86 527.7 128.8 527.2C171.7 526.7 214.3 522.3 257.2 522.3C300 522.3 343 526.7 385.8 530.2C428.7 533.7 471.3 536.3 514.2 537.3C557 538.3 600 537.7 642.8 538C685.7 538.3 728.3 539.7 771.2 540.5C814 541.3 857 541.7 878.5 541.8L900 542L900 601L878.5 601C857 601 814 601 771.2 601C728.3 601 685.7 601 642.8 601C600 601 557 601 514.2 601C471.3 601 428.7 601 385.8 601C343 601 300 601 257.2 601C214.3 601 171.7 601 128.8 601C86 601 43 601 21.5 601L0 601Z" fill="#d53867"></path><path d="M0 567L21.5 566.7C43 566.3 86 565.7 128.8 565.8C171.7 566 214.3 567 257.2 561.3C300 555.7 343 543.3 385.8 542.7C428.7 542 471.3 553 514.2 554.3C557 555.7 600 547.3 642.8 540.8C685.7 534.3 728.3 529.7 771.2 533.7C814 537.7 857 550.3 878.5 556.7L900 563L900 601L878.5 601C857 601 814 601 771.2 601C728.3 601 685.7 601 642.8 601C600 601 557 601 514.2 601C471.3 601 428.7 601 385.8 601C343 601 300 601 257.2 601C214.3 601 171.7 601 128.8 601C86 601 43 601 21.5 601L0 601Z" fill="#c62368"></path></svg>